<svg xmlns="http://www.w3.org/2000/svg" id="Layer_1" viewBox="0 0 490 76">
	<path fill="#3c71bf" d="M3 3.2h19v5.6h-6.4v33.6H9.4V8.8H3V3.2Zm37.1 39.2c-.3-1-.6-1.6-.6-4.8v-6.2c0-3.6-1.2-5-4-5h-2.1v16h-6.2V3.2h9.3c6.4 0 9.2 3 9.2 9v3.1c0 4-1.3 6.7-4 8 3 1.2 4 4.2 4 8.3v6c0 2 0 3.3.7 4.8H40ZM33.4 8.8v12h2.4c2.3 0 3.7-1 3.7-4.1v-3.9c0-2.8-1-4-3.1-4h-3Zm38.8 33.6H66l-1-7.1h-7.6l-1.1 7.1h-5.7L57 3.2h9l6.3 39.2ZM58.2 30H64l-3-20-3 19.9Zm37.2-2.2V33c0 6.3-3.2 9.9-9.2 9.9S77 39.3 77 33V12.6c0-6.3 3.1-9.8 9.2-9.8s9.2 3.5 9.2 9.8v3.8h-5.8v-4.2c0-2.8-1.3-3.8-3.2-3.8s-3.2 1-3.2 3.8v21.2c0 2.8 1.2 3.8 3.2 3.8s3.2-1 3.2-3.8v-5.6h5.8Zm14.3-1-1.9 3.6v12h-6.1V3.2h6.1v17l8-17h6.2l-8.5 17.5 8.5 21.7h-6.3l-6-15.6Zm17.7-23.6h6.1v39.2h-6.1V3.2ZM146 14v28.4h-5.5V3.2h7.7l6.3 23.5V3.2h5.5v39.2h-6.3L146 14Zm30.2 6.6h8.6V33c0 6.3-3.1 9.9-9.2 9.9s-9.2-3.6-9.2-9.9V12.6c0-6.3 3.2-9.8 9.2-9.8s9.2 3.5 9.2 9.8v3.8H179v-4.2c0-2.8-1.2-3.8-3.2-3.8s-3.2 1-3.2 3.8v21.2c0 2.8 1.2 3.8 3.2 3.8s3.2-1 3.2-3.8v-7.2h-2.8v-5.6Zm110.6 7.2V33c0 6.3-3 9.9-9.1 9.9s-9.2-3.6-9.2-9.9V12.6c0-6.3 3.1-9.8 9.2-9.8s9.1 3.5 9.1 9.8v3.8H281v-4.2c0-2.8-1.2-3.8-3.2-3.8s-3.2 1-3.2 3.8v21.2c0 2.8 1.3 3.8 3.2 3.8s3.2-1 3.2-3.8v-5.6h5.8Zm26.5 14.6H307l-1.1-7.1h-7.6l-1 7.1h-5.7L298 3.2h9l6.3 39.2Zm-14-12.4h5.9l-3-19.9-3 19.9Zm19.6-26.8h6.1v33.6h10.2v5.6h-16.3V3.2Zm21.7 0h6.2v39.2h-6.2V3.2Zm19.5 17.4h8v5.6h-8v16.2H354V3.2h16.3v5.6H360v11.8Zm15.4-8c0-6.3 3.3-9.8 9.3-9.8s9.4 3.5 9.4 9.8V33c0 6.3-3.3 9.9-9.4 9.9s-9.3-3.6-9.3-9.9V12.6Zm6.2 20.8c0 2.8 1.2 3.9 3.1 3.9s3.2-1.1 3.2-4v-21c0-2.9-1.2-4-3.2-4s-3.1 1.1-3.1 4v21Zm32.1 9c-.3-1-.6-1.6-.6-4.8v-6.2c0-3.6-1.2-5-4-5h-2.1v16h-6.2V3.2h9.3c6.4 0 9.1 3 9.1 9v3.1c0 4-1.2 6.7-4 8 3 1.2 4.1 4.2 4.1 8.3v6c0 2 0 3.3.7 4.8h-6.3Zm-6.7-33.6v12h2.4c2.3 0 3.7-1 3.7-4.1v-3.9c0-2.8-1-4-3.2-4h-3Zm24.6 5.2v28.4H426V3.2h7.7l6.4 23.5V3.2h5.5v39.2h-6.4L431.7 14Zm21.1-10.8h6.2v39.2h-6.2V3.2Zm33.3 39.2H480l-1-7.1h-7.6l-1 7.1h-5.7L471 3.2h9l6.2 39.2Zm-14-12.4h6L475 10l-3 20Z"/>
	<path fill="#88a380" d="M2.5 62.8h2.1v12h-2v-12Zm6.1 0h2l6.3 8.2v-8.2h2v12h-1.7l-6.6-8.6v8.5h-2V62.8Zm14.2 0h8.9v2h-6.8V68h6v1.9h-6v4.8h-2V62.8Zm11.1 6c0-3.4 2.5-6.2 6.2-6.2s6.2 2.8 6.2 6.1c0 3.4-2.6 6.2-6.2 6.2s-6.2-2.8-6.2-6.1Zm10.2 0c0-2.3-1.7-4.3-4-4.3s-4 2-4 4.2c0 2.4 1.6 4.3 4 4.3s4-1.9 4-4.2Zm5.5-6H55c1.5 0 2.7.5 3.5 1.2.6.7 1 1.5 1 2.6 0 2-1.2 3.1-2.9 3.6l3.2 4.5h-2.5l-2.9-4.1h-2.6v4.1h-2V62.8Zm5.2 6c1.5 0 2.4-.9 2.4-2v-.1c0-1.3-.9-2-2.5-2h-3v4h3Zm7.9-6h2.2l3.6 5.6 3.7-5.6h2.2v12h-2.1v-8.6l-3.8 5.6-3.7-5.6v8.5h-2.1V62.8Zm15.7 0h2v12h-2v-12Zm6 0h2l6.3 8.2v-8.2h2v12H93l-6.6-8.6v8.5h-2V62.8Zm13.6 6a6 6 0 0 1 6.2-6.2c2 0 3.3.6 4.6 1.6l-1.4 1.6a4.5 4.5 0 0 0-3.3-1.3c-2.2 0-3.9 2-3.9 4.2 0 2.5 1.7 4.3 4.1 4.3 1.1 0 2.1-.3 2.9-.9V70h-3v-2h5v5a7.6 7.6 0 0 1-5 1.8 5.9 5.9 0 0 1-6.1-6.1Zm24.6-6.1h2l5.2 12h-2.2l-1.2-2.9h-5.6l-1.3 3h-2.1l5.2-12Zm3 7.3-2-4.8-2 4.8h4Zm5.7-1.2a6 6 0 0 1 6.1-6.2c2.2 0 3.5.8 4.7 1.9l-1.4 1.5c-1-.9-2-1.5-3.3-1.5-2.3 0-4 1.9-4 4.2 0 2.4 1.7 4.3 4 4.3 1.5 0 2.4-.6 3.4-1.6l1.4 1.4a6.1 6.1 0 0 1-4.9 2.1 6 6 0 0 1-6-6.1Zm16.9-4h-3.7v-2h9.6v2h-3.8v10h-2v-10Zm8.8-2h2v12h-2v-12Zm5.3 6c0-3.4 2.6-6.2 6.3-6.2s6.2 2.8 6.2 6.1c0 3.4-2.6 6.2-6.2 6.2s-6.3-2.8-6.3-6.1Zm10.3 0c0-2.3-1.7-4.3-4-4.3s-4 2-4 4.2c0 2.4 1.6 4.3 4 4.3s4-1.9 4-4.2Zm5.5-6h2l6.3 8.2v-8.2h2v12h-1.7l-6.5-8.6v8.5H178V62.8Zm19.9 0h8.9v2H200V68h6v1.9h-6v4.8h-2V62.8Zm11 6c0-3.4 2.6-6.2 6.3-6.2s6.2 2.8 6.2 6.1c0 3.4-2.6 6.2-6.3 6.2s-6.2-2.8-6.2-6.1Zm10.3 0c0-2.3-1.7-4.3-4-4.3s-4 2-4 4.2c0 2.4 1.6 4.3 4 4.3s4-1.9 4-4.2Zm5.5-6h5.3c1.5 0 2.7.5 3.4 1.2.7.7 1 1.5 1 2.6 0 2-1.2 3.1-2.8 3.6l3.2 4.5h-2.5l-2.9-4.1h-2.6v4.1h-2.1V62.8Zm5.1 6c1.5 0 2.5-.9 2.5-2v-.1c0-1.3-1-2-2.5-2h-3v4h3Zm13.7-6h2v5h5.7v-5h2.1v12h-2v-5.1h-5.7v5h-2.1V62.8Zm13.7 0h8.9v1.9h-6.8v3h6v2h-6v3.1h6.9v2h-9v-12Zm16.6-.1h2l5.2 12h-2.3l-1.2-2.9H272l-1.2 3h-2.2l5.3-12Zm3 7.3-2-4.8-2.1 4.8h4Zm6.8-7.2h2.1v10h6.3v2h-8.4v-12Zm12.6 2h-3.8v-2h9.7v2h-3.8v10h-2.1v-10Zm8.7-2h2v5h5.7v-5h2v12h-2v-5.1H307v5h-2V62.8Zm13.7 0h2.1v12h-2v-12Zm6.1 0h8.8v1.9h-6.7v3h6v2h-6v3.1h6.8v2h-9v-12Zm12.2 0h5.3c1.5 0 2.7.5 3.4 1.2.6.7 1 1.5 1 2.6 0 2-1.2 3.1-2.8 3.6l3.2 4.5h-2.5l-3-4.1h-2.5v4.1H337V62.8Zm5.1 6c1.5 0 2.5-.9 2.5-2v-.1c0-1.3-1-2-2.5-2h-3v4h3Zm13.1 0a6 6 0 0 1 6.2-6.2 6 6 0 0 1 4.6 1.9l-1.3 1.5c-1-.9-2-1.5-3.3-1.5-2.3 0-4 1.9-4 4.2 0 2.4 1.7 4.3 4 4.3 1.4 0 2.4-.6 3.4-1.6l1.3 1.4a6.1 6.1 0 0 1-4.8 2.1 6 6 0 0 1-6-6.1Zm12.9 0c0-3.4 2.6-6.2 6.2-6.2s6.2 2.8 6.2 6.1c0 3.4-2.5 6.2-6.2 6.2s-6.2-2.8-6.2-6.1Zm10.2 0c0-2.3-1.6-4.3-4-4.3s-4 2-4 4.2c0 2.4 1.7 4.3 4 4.3s4-1.9 4-4.2Zm5.6-6h2.2l3.6 5.6 3.6-5.6h2.2v12h-2v-8.6l-3.8 5.6-3.8-5.6v8.5h-2V62.8Zm15.6 0h2.2l3.6 5.6 3.6-5.6h2.3v12H409v-8.6l-3.8 5.6-3.8-5.6v8.5h-2V62.8Zm15.5 6.9v-6.9h2v6.8c0 2.2 1.2 3.4 3 3.4 1.9 0 3-1.1 3-3.3v-6.9h2.1v6.8c0 3.5-2 5.3-5.1 5.3-3 0-5-1.8-5-5.2Zm13.9-6.9h2l6.3 8.2v-8.2h2v12h-1.7l-6.6-8.6v8.5h-2V62.8Zm14.3 0h2.1v12h-2v-12Zm8.7 2H448v-2h9.7v2H454v10h-2.1v-10Zm8.7-2h2v12h-2v-12Zm6 0h8.8v1.9h-6.7v3h6v2h-6v3.1h6.8v2h-8.9v-12ZM478 73l1.3-1.5c1.1 1 2.3 1.5 3.7 1.5 1.3 0 2.1-.6 2.1-1.5 0-.8-.4-1.3-2.6-1.8-2.6-.6-4-1.4-4-3.6 0-2 1.7-3.5 4-3.5a7 7 0 0 1 4.4 1.5l-1.2 1.6c-1-.8-2-1.2-3.2-1.2-1.2 0-2 .6-2 1.4 0 1 .6 1.4 2.9 2 2.5.5 3.8 1.4 3.8 3.4 0 2.3-1.7 3.6-4.2 3.6a7 7 0 0 1-5-2Z"/>
	<path fill="#f1b226" d="m249 6.1 8.7 5.1V1.1l-8.7 5z"/>
	<path fill="#ff9f33" d="m240.2 11.2 8.8 5.1V6.1l-8.8 5.1z"/>
	<path fill="#fbe3d3" d="m240.2 21.3 8.8 5.1V16.3l-8.8 5z"/>
	<path fill="#ffce85" d="M257.7 11.2 249 6.1v10.2l8.7-5.1z"/>
	<path fill="#fb9300" d="m257.7 21.3-8.7-5v10.1l8.7-5.1z"/>
	<path fill="#ffcd82" d="m249 6.1-8.8-5v10.1l8.8-5.1z"/>
	<path fill="#fee0c5" d="m249 16.3-8.8-5.1v10.1l8.8-5z"/>
	<path fill="#b4e0aa" d="m240.2 31.5 8.8 5V26.4l-8.8 5.1z"/>
	<path fill="#b3e0a9" d="m240.2 41.6 8.8 5.1V36.5l-8.8 5.1z"/>
	<path fill="#b9cbb0" d="m249 36.5-8.8-5v10.1l8.8-5.1z"/>
	<path fill="#88a381" d="m240.2 51.7 8.8 5.1V46.7l-8.8 5z"/>
	<path fill="#88a381" d="m249 46.7-8.8-5.1v10.1l8.8-5z"/>
	<path fill="#fed5b1" d="m249 26.4-8.8-5.1v10.2l8.8-5.1z"/>
	<path fill="#f5ad5a" d="m249 16.3 8.7 5V11.2l-8.7 5.1z"/>
	<path fill="#fee0c5" d="m231.4 16.3 8.8 5V11.2l-8.8 5.1z"/>
	<path fill="#f1d9cf" d="m222.6 21.3 8.8 5.1V16.3l-8.8 5z"/>
	<path fill="#a6c3d9" d="m222.6 31.5 8.8 5V26.4l-8.8 5.1z"/>
	<path fill="#d8c8b7" d="m240.2 21.3-8.8-5v10.1l8.8-5.1z"/>
	<path fill="#a7bab2" d="m240.2 31.5-8.8-5.1v10.1l8.8-5z"/>
	<path fill="#bfd4e4" d="m231.4 26.4-8.8-5.1v10.2l8.8-5.1z"/>
	<path fill="#fcdb98" d="m231.4 26.4 8.8 5.1V21.3l-8.8 5.1z"/>
	<path fill="#a6c3d9" d="m213.9 26.4 8.7 5.1V21.3l-8.7 5.1z"/>
	<path fill="#5f8dce" d="m196.3 26.4 8.8 5.1V21.3l-8.8 5.1z"/>
	<path fill="#bfd4e4" d="m222.6 41.6 8.8 5.1V36.5l-8.8 5.1z"/>
	<path fill="#88a381" d="m240.2 41.6-8.8-5.1v10.2l8.8-5.1z"/>
	<path fill="#a6b9b1" d="m231.4 36.5-8.8-5v10.1l8.8-5.1z"/>
	<path fill="#fcf4f6" d="m222.6 11.2 8.8 5.1V6.1l-8.8 5.1z"/>
	<path fill="#fbeef2" d="m231.4 6.1-8.8-5v10.1l8.8-5.1z"/>
	<path fill="#efefda" d="m231.4 16.3-8.8-5.1v10.1l8.8-5z"/>
	<path fill="#3c82ca" d="m222.6 51.7 8.8 5.1V46.7l-8.8 5z"/>
	<path fill="#436cbb" d="m231.4 46.7-8.8-5.1v10.1l8.8-5z"/>
	<path fill="#bfd4e4" d="m213.9 16.3 8.7 5V11.2l-8.7 5.1z"/>
	<path fill="#a6c3d9" d="m222.6 21.3-8.7-5v10.1l8.7-5.1z"/>
	<path fill="#bfd4e4" d="m213.9 36.5 8.7 5.1V31.5l-8.7 5z"/>
	<path fill="#5d81c5" d="m222.6 31.5-8.7-5.1v10.1l8.7-5z"/>
	<path fill="#5f8dce" d="m205.1 31.5 8.8 5V26.4l-8.8 5.1zm0-10.2 8.8 5.1V16.3l-8.8 5z"/>
	<path fill="#7da3d7" d="m213.9 26.4-8.8-5.1v10.2l8.8-5.1zm-8.8 15.2 8.8 5.1V36.5l-8.8 5.1z"/>
	<path fill="#bed3e3" d="m213.9 36.5-8.8-5v10.1l8.8-5.1z"/>
	<path fill="#c0d4e4" d="m213.9 6.1 8.7 5.1V1.1l-8.7 5z"/>
	<path fill="#a7c4d9" d="m222.6 11.2-8.7-5.1v10.2l8.7-5.1z"/>
	<path fill="#bfd4e4" d="m222.6 41.6-8.7-5.1v10.2l8.7-5.1z"/>
	<path fill="#456dbc" d="m196.3 16.3 8.8 5V11.2l-8.8 5.1zm8.8 5-8.8-5v10.1l8.8-5.1z"/>
	<path fill="#7da3d7" d="m196.3 36.5 8.8 5.1V31.5l-8.8 5zm8.8-5-8.8-5.1v10.1l8.8-5z"/>
	<path fill="#456dbc" d="m196.3 6.1 8.8 5.1V1.1l-8.8 5z"/>
	<path fill="#7da3d7" d="m205.1 41.6-8.8-5.1v10.2l8.8-5.1z"/>
	<path fill="#b9cbb0" d="m231.4 36.5 8.8 5.1V31.5l-8.8 5z"/>
	<path fill="#fbcf77" d="m257.7 31.5-8.7-5.1v10.1l8.7-5z"/>
	<path fill="#fca224" d="m257.7 41.6-8.7-5.1v10.2l8.7-5.1z"/>
	<path fill="#eea400" d="m249 36.5 8.7 5.1V31.5l-8.7 5z"/>
	<path fill="none" stroke="#ffad0c" stroke-miterlimit="10" d="M2.7 51.5h214.8m37.4 0h232.6"/>
</svg>
